<svg xmlns="http://www.w3.org/2000/svg" width="1200" height="360" viewBox="0 0 1200 360"><defs><style>.t{font:700 28px sans-serif;fill:#102a43}.l{font:600 18px sans-serif;fill:#102a43}.s{font:500 14px sans-serif;fill:#486581}.b{rx:18;ry:18;stroke-width:3}.ln{stroke:#243b53;stroke-width:4;fill:none;marker-end:url(#a)}</style><marker id="a" viewBox="0 0 10 10" refX="8" refY="5" markerWidth="8" markerHeight="8" orient="auto"><path d="M0 0 L10 5 L0 10 z" fill="#243b53"/></marker></defs><rect width="1200" height="360" fill="#f4f7fb"/><text x="60" y="55" class="t">AI Wiki FE 데이터 흐름</text><rect x="60" y="140" width="170" height="90" class="b" fill="#d9e2ec" stroke="#486581"/><text x="112" y="185" class="l">User</text><text x="90" y="210" class="s">문서 작성 / 활성화</text><rect x="280" y="140" width="210" height="90" class="b" fill="#ffe3a3" stroke="#f0b429"/><text x="320" y="185" class="l">Editor Screen</text><text x="323" y="210" class="s">Markdown + AI 상태</text><rect x="540" y="140" width="170" height="90" class="b" fill="#bee3f8" stroke="#2b6cb0"/><text x="581" y="185" class="l">Save API</text><text x="565" y="210" class="s">문서 저장/수정</text><rect x="760" y="140" width="170" height="90" class="b" fill="#ffd0b5" stroke="#d64545"/><text x="792" y="185" class="l">Analyze API</text><text x="796" y="210" class="s">분석 요청</text><rect x="980" y="90" width="160" height="90" class="b" fill="#c6f7e2" stroke="#2f855a"/><text x="1031" y="135" class="l">SSE</text><text x="1012" y="160" class="s">AI 상태 스트림</text><rect x="980" y="210" width="160" height="90" class="b" fill="#e9d8fd" stroke="#6b46c1"/><text x="1018" y="255" class="l">Result Panel</text><text x="1015" y="280" class="s">요약/태그 결과</text><path d="M230 185 H280" class="ln"/><path d="M490 185 H540" class="ln"/><path d="M710 185 H760" class="ln"/><path d="M930 160 H980" class="ln"/><path d="M930 210 H980" class="ln"/></svg>
