<svg xmlns="http://www.w3.org/2000/svg" width="1200" height="380" viewBox="0 0 1200 380"><defs><style>.t{font:700 28px sans-serif;fill:#102a43}.h{font:700 18px sans-serif;fill:#102a43}.c{font:500 14px sans-serif;fill:#243b53}.e{fill:#fff;stroke:#486581;stroke-width:2.5;rx:14;ry:14}.ln{stroke:#243b53;stroke-width:3;fill:none;marker-end:url(#a)}</style><marker id="a" viewBox="0 0 10 10" refX="8" refY="5" markerWidth="8" markerHeight="8" orient="auto"><path d="M0 0 L10 5 L0 10 z" fill="#243b53"/></marker></defs><rect width="1200" height="380" fill="#f4f7fb"/><text x="60" y="55" class="t">AI Wiki FE 화면 모델 ERD</text><rect x="90" y="100" width="280" height="170" class="e"/><text x="120" y="135" class="h">DocumentDraftView</text><text x="120" y="170" class="c">- id</text><text x="120" y="195" class="c">- title</text><text x="120" y="220" class="c">- markdown</text><text x="120" y="245" class="c">- documentStatus</text><rect x="460" y="100" width="280" height="170" class="e"/><text x="490" y="135" class="h">DocumentAnalysisView</text><text x="490" y="170" class="c">- aiStatus</text><text x="490" y="195" class="c">- summary</text><text x="490" y="220" class="c">- tags[]</text><text x="490" y="245" class="c">- lastUpdatedAt</text><rect x="830" y="100" width="280" height="170" class="e"/><text x="860" y="135" class="h">SearchResultView</text><text x="860" y="170" class="c">- id</text><text x="860" y="195" class="c">- title</text><text x="860" y="220" class="c">- snippet</text><text x="860" y="245" class="c">- tags[]</text><path d="M370 185 H460" class="ln"/><path d="M740 185 H830" class="ln"/></svg>
