<svg xmlns="http://www.w3.org/2000/svg" width="1200" height="520" viewBox="0 0 1200 520"><defs><style>.t{font:700 28px sans-serif;fill:#102a43}.l{font:600 17px sans-serif;fill:#102a43}.s{font:500 14px sans-serif;fill:#486581}.b{fill:#fff;stroke:#486581;stroke-width:2.5;rx:16;ry:16}.d{fill:#fff7ed;stroke:#dd6b20;stroke-width:2.5}.ln{stroke:#243b53;stroke-width:3.5;fill:none;marker-end:url(#a)}</style><marker id="a" viewBox="0 0 10 10" refX="8" refY="5" markerWidth="8" markerHeight="8" orient="auto"><path d="M0 0 L10 5 L0 10 z" fill="#243b53"/></marker></defs><rect width="1200" height="520" fill="#f4f7fb"/><text x="60" y="55" class="t">AI Wiki FE 플로우</text><rect x="90" y="100" width="210" height="80" class="b"/><text x="126" y="145" class="l">1. 문서 작성</text><text x="123" y="168" class="s">DRAFT 편집</text><rect x="360" y="100" width="210" height="80" class="b"/><text x="392" y="145" class="l">2. 저장</text><text x="404" y="168" class="s">save API</text><polygon points="730,90 840,140 730,190 620,140" class="d"/><text x="670" y="136" class="l">ACTIVE 전환 요청?</text><text x="706" y="159" class="s">analyze 가능</text><rect x="900" y="100" width="220" height="80" class="b"/><text x="925" y="145" class="l">3. 분석 요청 + SSE</text><text x="943" y="168" class="s">status subscribe</text><rect x="900" y="290" width="220" height="80" class="b"/><text x="930" y="335" class="l">4. 결과 확인</text><text x="940" y="358" class="s">summary / tags</text><rect x="360" y="290" width="240" height="80" class="b"/><text x="413" y="335" class="l">DRAFT 유지</text><text x="420" y="358" class="s">계속 수정 가능</text><path d="M300 140 H360" class="ln"/><path d="M570 140 H620" class="ln"/><path d="M840 140 H900" class="ln"/><path d="M1010 180 V290" class="ln"/><path d="M730 190 V290 H600" class="ln"/></svg>
