<svg xmlns="http://www.w3.org/2000/svg" width="1200" height="460" viewBox="0 0 1200 460"><defs><style>.t{font:700 28px sans-serif;fill:#102a43}.l{font:700 20px sans-serif;fill:#102a43}.x{font:600 15px sans-serif;fill:#243b53}.g{stroke-width:3;rx:24;ry:24}.b{stroke-width:2.5;rx:16;ry:16}.ln{stroke:#243b53;stroke-width:3.5;fill:none;marker-end:url(#a)}</style><marker id="a" viewBox="0 0 10 10" refX="8" refY="5" markerWidth="8" markerHeight="8" orient="auto"><path d="M0 0 L10 5 L0 10 z" fill="#243b53"/></marker></defs><rect width="1200" height="460" fill="#f4f7fb"/><text x="60" y="55" class="t">AI Wiki FE 컴포넌트 다이어그램</text><rect x="60" y="90" width="780" height="300" class="g" fill="#fff7ed" stroke="#dd6b20"/><text x="90" y="130" class="l">Editor UI</text><rect x="100" y="170" width="220" height="80" class="b" fill="#fff" stroke="#c05621"/><text x="145" y="215" class="x">EditorPane</text><rect x="360" y="170" width="220" height="80" class="b" fill="#fff" stroke="#c05621"/><text x="389" y="215" class="x">DocumentMetaPanel</text><rect x="620" y="170" width="180" height="80" class="b" fill="#fff" stroke="#c05621"/><text x="648" y="215" class="x">AiStatusBanner</text><rect x="360" y="280" width="240" height="70" class="b" fill="#fff" stroke="#c05621"/><text x="398" y="322" class="x">AnalysisResultPanel</text><rect x="900" y="150" width="230" height="90" class="b" fill="#e0f2fe" stroke="#0369a1"/><text x="962" y="190" class="x">SseClient</text><text x="941" y="215" class="x">Query / Mutation Client</text><path d="M320 210 H360" class="ln"/><path d="M580 210 H620" class="ln"/><path d="M470 250 V280" class="ln"/><path d="M800 210 H900" class="ln"/></svg>
