<svg xmlns="http://www.w3.org/2000/svg" width="1200" height="360" viewBox="0 0 1200 360"><defs><style>.t{font:700 28px sans-serif;fill:#102a43}.l{font:600 18px sans-serif;fill:#102a43}.s{font:500 14px sans-serif;fill:#486581}.b{rx:18;ry:18;stroke-width:3}.ln{stroke:#243b53;stroke-width:4;fill:none;marker-end:url(#a)}</style><marker id="a" viewBox="0 0 10 10" refX="8" refY="5" markerWidth="8" markerHeight="8" orient="auto"><path d="M0 0 L10 5 L0 10 z" fill="#243b53"/></marker></defs><rect width="1200" height="360" fill="#f4f7fb"/><text x="60" y="55" class="t">AI Wiki BE 데이터 흐름</text><rect x="60" y="140" width="170" height="90" class="b" fill="#d9e2ec" stroke="#486581"/><text x="112" y="185" class="l">Client</text><text x="90" y="210" class="s">문서/분석 요청</text><rect x="280" y="140" width="190" height="90" class="b" fill="#ffe3a3" stroke="#f0b429"/><text x="305" y="185" class="l">API Adapter</text><text x="311" y="210" class="s">REST + SSE</text><rect x="520" y="140" width="220" height="90" class="b" fill="#ffd0b5" stroke="#d64545"/><text x="545" y="185" class="l">Application Service</text><text x="572" y="210" class="s">문서/상태 유스케이스</text><rect x="790" y="90" width="160" height="90" class="b" fill="#c6f7e2" stroke="#2f855a"/><text x="823" y="135" class="l">Repository</text><text x="813" y="160" class="s">문서 / revision</text><rect x="790" y="210" width="160" height="90" class="b" fill="#bee3f8" stroke="#2b6cb0"/><text x="825" y="255" class="l">Analysis Port</text><text x="811" y="280" class="s">AI 작업 생성</text><rect x="1000" y="150" width="150" height="90" class="b" fill="#e9d8fd" stroke="#6b46c1"/><text x="1045" y="195" class="l">Status</text><text x="1031" y="220" class="s">SSE / 조회</text><path d="M230 185 H280" class="ln"/><path d="M470 185 H520" class="ln"/><path d="M740 165 H790" class="ln"/><path d="M740 255 H790" class="ln"/><path d="M950 195 H1000" class="ln"/></svg>
