<svg xmlns="http://www.w3.org/2000/svg" width="1200" height="420" viewBox="0 0 1200 420"><defs><style>.t{font:700 28px sans-serif;fill:#102a43}.h{font:700 18px sans-serif;fill:#102a43}.c{font:500 14px sans-serif;fill:#243b53}.e{fill:#fff;stroke:#486581;stroke-width:2.5;rx:14;ry:14}.ln{stroke:#243b53;stroke-width:3;fill:none;marker-end:url(#a)}</style><marker id="a" viewBox="0 0 10 10" refX="8" refY="5" markerWidth="8" markerHeight="8" orient="auto"><path d="M0 0 L10 5 L0 10 z" fill="#243b53"/></marker></defs><rect width="1200" height="420" fill="#f4f7fb"/><text x="60" y="55" class="t">AI Wiki BE ERD</text><rect x="70" y="100" width="300" height="200" class="e"/><text x="105" y="135" class="h">document_entity</text><text x="105" y="170" class="c">- id</text><text x="105" y="195" class="c">- title</text><text x="105" y="220" class="c">- content</text><text x="105" y="245" class="c">- document_status</text><text x="105" y="270" class="c">- updated_at</text><rect x="450" y="100" width="300" height="200" class="e"/><text x="485" y="135" class="h">document_revision_entity</text><text x="485" y="170" class="c">- id</text><text x="485" y="195" class="c">- document_id</text><text x="485" y="220" class="c">- revision_no</text><text x="485" y="245" class="c">- content_snapshot</text><rect x="830" y="100" width="300" height="200" class="e"/><text x="865" y="135" class="h">ai_analysis_job_entity</text><text x="865" y="170" class="c">- id</text><text x="865" y="195" class="c">- document_id</text><text x="865" y="220" class="c">- ai_status</text><text x="865" y="245" class="c">- summary / tags</text><text x="865" y="270" class="c">- updated_at</text><path d="M370 190 H450" class="ln"/><path d="M750 190 H830" class="ln"/></svg>
