<svg xmlns="http://www.w3.org/2000/svg" width="1200" height="480" viewBox="0 0 1200 480"><defs><style>.t{font:700 28px sans-serif;fill:#102a43}.l{font:700 20px sans-serif;fill:#102a43}.x{font:600 15px sans-serif;fill:#243b53}.g{stroke-width:3;rx:24;ry:24}.b{stroke-width:2.5;rx:16;ry:16}.ln{stroke:#243b53;stroke-width:3.5;fill:none;marker-end:url(#a)}</style><marker id="a" viewBox="0 0 10 10" refX="8" refY="5" markerWidth="8" markerHeight="8" orient="auto"><path d="M0 0 L10 5 L0 10 z" fill="#243b53"/></marker></defs><rect width="1200" height="480" fill="#f4f7fb"/><text x="60" y="55" class="t">AI Wiki BE 컴포넌트 다이어그램</text><rect x="70" y="90" width="1040" height="320" class="g" fill="#fff7ed" stroke="#dd6b20"/><text x="100" y="130" class="l">Hexagonal Architecture</text><rect x="110" y="180" width="210" height="80" class="b" fill="#fff" stroke="#c05621"/><text x="140" y="225" class="x">Document API Adapter</text><rect x="370" y="180" width="230" height="80" class="b" fill="#fff" stroke="#c05621"/><text x="405" y="225" class="x">Application Service</text><rect x="650" y="180" width="180" height="80" class="b" fill="#fff" stroke="#c05621"/><text x="700" y="225" class="x">Domain</text><rect x="890" y="150" width="180" height="80" class="b" fill="#fff" stroke="#c05621"/><text x="934" y="195" class="x">Repository Port</text><rect x="890" y="270" width="180" height="80" class="b" fill="#fff" stroke="#c05621"/><text x="948" y="315" class="x">Analysis Port</text><path d="M320 220 H370" class="ln"/><path d="M600 220 H650" class="ln"/><path d="M830 220 H890" class="ln"/><path d="M740 260 V310 H890" class="ln"/></svg>
