<svg xmlns="http://www.w3.org/2000/svg" width="1200" height="340" viewBox="0 0 1200 340"><defs><style>.t{font:700 28px sans-serif;fill:#102a43}.l{font:600 18px sans-serif;fill:#102a43}.s{font:500 14px sans-serif;fill:#486581}.b{rx:18;ry:18;stroke-width:3}.ln{stroke:#243b53;stroke-width:4;fill:none;marker-end:url(#a)}</style><marker id="a" viewBox="0 0 10 10" refX="8" refY="5" markerWidth="8" markerHeight="8" orient="auto"><path d="M0 0 L10 5 L0 10 z" fill="#243b53"/></marker></defs><rect width="1200" height="340" fill="#f4f7fb"/><text x="60" y="55" class="t">BE 워크플로 API 데이터 흐름</text><rect x="60" y="120" width="170" height="90" class="b" fill="#d9e2ec" stroke="#486581"/><text x="112" y="165" class="l">Client</text><text x="94" y="190" class="s">create / list / detail</text><rect x="280" y="120" width="180" height="90" class="b" fill="#ffe3a3" stroke="#f0b429"/><text x="308" y="165" class="l">API Adapter</text><text x="320" y="190" class="s">REST Controller</text><rect x="510" y="120" width="210" height="90" class="b" fill="#ffd0b5" stroke="#d64545"/><text x="532" y="165" class="l">Application Service</text><text x="572" y="190" class="s">Use Case</text><rect x="770" y="120" width="170" height="90" class="b" fill="#c6f7e2" stroke="#2f855a"/><text x="823" y="165" class="l">Port</text><text x="800" y="190" class="s">Repository Port</text><rect x="990" y="120" width="160" height="90" class="b" fill="#bee3f8" stroke="#2b6cb0"/><text x="1023" y="165" class="l">JPA Adapter</text><text x="1031" y="190" class="s">Entity 저장</text><path d="M230 165 H280" class="ln"/><path d="M460 165 H510" class="ln"/><path d="M720 165 H770" class="ln"/><path d="M940 165 H990" class="ln"/></svg>
