<svg xmlns="http://www.w3.org/2000/svg" width="1200" height="400" viewBox="0 0 1200 400"><defs><style>.t{font:700 28px sans-serif;fill:#102a43}.h{font:700 18px sans-serif;fill:#102a43}.c{font:500 14px sans-serif;fill:#243b53}.e{fill:#fff;stroke:#486581;stroke-width:2.5;rx:14;ry:14}.ln{stroke:#243b53;stroke-width:3;fill:none;marker-end:url(#a)}</style><marker id="a" viewBox="0 0 10 10" refX="8" refY="5" markerWidth="8" markerHeight="8" orient="auto"><path d="M0 0 L10 5 L0 10 z" fill="#243b53"/></marker></defs><rect width="1200" height="400" fill="#f4f7fb"/><text x="60" y="55" class="t">BE 워크플로 API ERD</text><rect x="110" y="100" width="320" height="190" class="e"/><text x="145" y="135" class="h">workflow_run_entity</text><text x="145" y="170" class="c">- id</text><text x="145" y="195" class="c">- title</text><text x="145" y="220" class="c">- status</text><text x="145" y="245" class="c">- created_at</text><text x="145" y="270" class="c">- updated_at</text><rect x="530" y="100" width="320" height="190" class="e"/><text x="565" y="135" class="h">workflow_stage_entity</text><text x="565" y="170" class="c">- id</text><text x="565" y="195" class="c">- workflow_run_id</text><text x="565" y="220" class="c">- stage_name</text><text x="565" y="245" class="c">- status</text><text x="565" y="270" class="c">- updated_at</text><rect x="890" y="120" width="220" height="150" class="e"/><text x="930" y="155" class="h">Domain POJO</text><text x="930" y="185" class="c">WorkflowRun</text><text x="930" y="210" class="c">WorkflowStage</text><text x="930" y="235" class="c">Entity와 분리</text><path d="M430 195 H530" class="ln"/><path d="M850 195 H890" class="ln"/></svg>
