<svg xmlns="http://www.w3.org/2000/svg" width="1200" height="380" viewBox="0 0 1200 380"><defs><style>.t{font:700 28px sans-serif;fill:#102a43}.h{font:700 18px sans-serif;fill:#102a43}.c{font:500 14px sans-serif;fill:#243b53}.e{fill:#fff;stroke:#486581;stroke-width:2.5;rx:14;ry:14}.ln{stroke:#243b53;stroke-width:3;fill:none;marker-end:url(#a)}</style><marker id="a" viewBox="0 0 10 10" refX="8" refY="5" markerWidth="8" markerHeight="8" orient="auto"><path d="M0 0 L10 5 L0 10 z" fill="#243b53"/></marker></defs><rect width="1200" height="380" fill="#f4f7fb"/><text x="60" y="55" class="t">FE 화면 상태 ERD</text><rect x="90" y="100" width="280" height="160" class="e"/><text x="120" y="135" class="h">RunSummary</text><text x="120" y="165" class="c">- runId</text><text x="120" y="190" class="c">- title</text><text x="120" y="215" class="c">- status</text><text x="120" y="240" class="c">- updatedAt</text><rect x="460" y="100" width="280" height="160" class="e"/><text x="490" y="135" class="h">RunDetail</text><text x="490" y="165" class="c">- runId</text><text x="490" y="190" class="c">- ownerLane</text><text x="490" y="215" class="c">- description</text><text x="490" y="240" class="c">- stages[]</text><rect x="830" y="100" width="280" height="160" class="e"/><text x="860" y="135" class="h">RunStage</text><text x="860" y="165" class="c">- stageId</text><text x="860" y="190" class="c">- name</text><text x="860" y="215" class="c">- status</text><text x="860" y="240" class="c">- updatedAt</text><path d="M370 180 H460" class="ln"/><path d="M740 180 H830" class="ln"/></svg>
