<svg xmlns="http://www.w3.org/2000/svg" width="1200" height="340" viewBox="0 0 1200 340"><defs><style>.t{font:700 28px sans-serif;fill:#102a43}.l{font:600 18px sans-serif;fill:#102a43}.s{font:500 14px sans-serif;fill:#486581}.b{rx:18;ry:18;stroke-width:3}.ln{stroke:#243b53;stroke-width:4;fill:none;marker-end:url(#a)}</style><marker id="a" viewBox="0 0 10 10" refX="8" refY="5" markerWidth="8" markerHeight="8" orient="auto"><path d="M0 0 L10 5 L0 10 z" fill="#243b53"/></marker></defs><rect width="1200" height="340" fill="#f4f7fb"/><text x="60" y="55" class="t">FE 대시보드 데이터 흐름</text><rect x="60" y="120" width="170" height="90" class="b" fill="#d9e2ec" stroke="#486581"/><text x="110" y="165" class="l">User</text><text x="88" y="190" class="s">대시보드 진입</text><rect x="280" y="120" width="200" height="90" class="b" fill="#ffe3a3" stroke="#f0b429"/><text x="317" y="165" class="l">Dashboard UI</text><text x="319" y="190" class="s">List + Detail</text><rect x="530" y="120" width="190" height="90" class="b" fill="#bee3f8" stroke="#2b6cb0"/><text x="565" y="165" class="l">Query Client</text><text x="563" y="190" class="s">fetch / cache</text><rect x="770" y="120" width="180" height="90" class="b" fill="#c6f7e2" stroke="#2f855a"/><text x="823" y="165" class="l">BE API</text><text x="799" y="190" class="s">run list / detail</text><rect x="1000" y="120" width="150" height="90" class="b" fill="#e9d8fd" stroke="#6b46c1"/><text x="1041" y="165" class="l">Event</text><text x="1027" y="190" class="s">status refresh</text><path d="M230 165 H280" class="ln"/><path d="M480 165 H530" class="ln"/><path d="M720 165 H770" class="ln"/><path d="M950 165 H1000" class="ln"/></svg>
