<svg xmlns="http://www.w3.org/2000/svg" width="1200" height="520" viewBox="0 0 1200 520"><defs><style>.t{font:700 28px sans-serif;fill:#102a43}.l{font:600 17px sans-serif;fill:#102a43}.s{font:500 14px sans-serif;fill:#486581}.b{fill:#fff;stroke:#486581;stroke-width:2.5;rx:16;ry:16}.d{fill:#fff7ed;stroke:#dd6b20;stroke-width:2.5}.ln{stroke:#243b53;stroke-width:3.5;fill:none;marker-end:url(#a)}</style><marker id="a" viewBox="0 0 10 10" refX="8" refY="5" markerWidth="8" markerHeight="8" orient="auto"><path d="M0 0 L10 5 L0 10 z" fill="#243b53"/></marker></defs><rect width="1200" height="520" fill="#f4f7fb"/><text x="60" y="55" class="t">FE 대시보드 플로우</text><rect x="90" y="100" width="210" height="80" class="b"/><text x="132" y="145" class="l">1. 진입</text><text x="120" y="168" class="s">대시보드 페이지 오픈</text><rect x="360" y="100" width="210" height="80" class="b"/><text x="390" y="145" class="l">2. 목록 조회</text><text x="396" y="168" class="s">run list fetch</text><polygon points="730,90 840,140 730,190 620,140" class="d"/><text x="675" y="136" class="l">데이터 수신 성공?</text><text x="708" y="159" class="s">로딩/에러 분기</text><rect x="890" y="100" width="220" height="80" class="b"/><text x="915" y="145" class="l">3. 상세 패널 렌더링</text><text x="940" y="168" class="s">stage timeline 표시</text><rect x="360" y="290" width="240" height="80" class="b"/><text x="412" y="335" class="l">에러/빈 상태 표시</text><path d="M300 140 H360" class="ln"/><path d="M570 140 H620" class="ln"/><path d="M840 140 H890" class="ln"/><path d="M730 190 V290 H600" class="ln"/></svg>
